<svg t="1554256958011" class="icon" viewBox="0 0 1024 1024" version="1.1" xmlns="http://www.w3.org/2000/svg" p-id="5873" height="200" width="200"><path d="M976.5 369h-928c-13.3 0-24-10.7-24-24s10.7-24 24-24h928c13.3 0 24 10.7 24 24s-10.7 24-24 24z" fill="#ffffff" p-id="5874"></path><path d="M512.5 977c-2 0-4.1-0.3-6.1-0.8-12.8-3.4-20.5-16.5-17.1-29.3l157.5-598.3-155-263.4c-6.7-11.4-2.9-26.1 8.5-32.9 11.4-6.7 26.1-2.9 32.9 8.5l160 272c3.2 5.5 4.2 12.1 2.5 18.3l-160 608c-2.8 10.8-12.5 17.9-23.2 17.9z" fill="#ffffff" p-id="5875"></path><path d="M512.5 977c-10.6 0-20.4-7.1-23.2-17.9l-160-608c-1.6-6.2-0.7-12.8 2.5-18.3l160-272c6.7-11.4 21.4-15.2 32.9-8.5 11.4 6.7 15.2 21.4 8.5 32.9L378.3 348.6l157.5 598.3c3.4 12.8-4.3 25.9-17.1 29.3-2.1 0.5-4.2 0.8-6.2 0.8z" fill="#ffffff" p-id="5876"></path><path d="M352.5 369c-8.6 0-16.9-4.6-21.2-12.8l-144-272c-6.2-11.7-1.7-26.2 10-32.4 11.7-6.2 26.2-1.7 32.4 10l144 272c6.2 11.7 1.7 26.2-10 32.4-3.6 1.9-7.4 2.8-11.2 2.8zM672.5 369c-3.8 0-7.6-0.9-11.2-2.8-11.7-6.2-16.2-20.7-10-32.4l144-272c6.2-11.7 20.7-16.2 32.4-10 11.7 6.2 16.2 20.7 10 32.4l-144 272c-4.3 8.2-12.6 12.8-21.2 12.8z" fill="#ffffff" p-id="5877"></path><path d="M512.5 977c-7.5 0-14.5-3.5-19.1-9.4l-464-608c-5.9-7.8-6.6-18.3-1.6-26.7l160-272c4.3-7.3 12.2-11.8 20.7-11.8h608c8.5 0 16.4 4.5 20.7 11.8l160 272c4.9 8.4 4.3 19-1.6 26.7l-464 608c-4.6 5.9-11.6 9.4-19.1 9.4zM77.4 343.3l435.1 570.1 435.1-570.2L802.8 97H222.2L77.4 343.3z" fill="#ffffff" p-id="5878"></path></svg>