<?xml version="1.0" standalone="no"?><!DOCTYPE svg PUBLIC "-//W3C//DTD SVG 1.1//EN" "http://www.w3.org/Graphics/SVG/1.1/DTD/svg11.dtd"><svg t="1570203431623" class="icon" viewBox="0 0 1024 1024" version="1.1" xmlns="http://www.w3.org/2000/svg" p-id="36355" xmlns:xlink="http://www.w3.org/1999/xlink" width="200" height="200"><defs><style type="text/css"></style></defs><path d="M170.666667 810.666667H85.333333c-23.466667 0-42.666667-19.2-42.666666-42.666667V554.666667h938.666666v213.333333c0 23.466667-19.2 42.666667-42.666666 42.666667h-76.8" opacity=".16" p-id="36356" fill="#e6e6e6"></path><path d="M981.333333 512h-102.4l-157.866666-277.333333c-8.533333-12.8-21.333333-21.333333-36.266667-21.333334H469.333333c-23.466667 0-42.666667 19.2-42.666666 42.666667v46.933333L66.133333 51.2s-2.133333 0-2.133333-2.133333-2.133333-2.133333-4.266667-2.133334h-2.133333c-2.133333 0-2.133333-2.133333-4.266667-2.133333h-2.133333C46.933333 42.666667 46.933333 42.666667 44.8 42.666667H42.666667h-2.133334-4.266666-2.133334c-2.133333 0-4.266667 0-6.4 2.133333h-2.133333c-2.133333 2.133333-4.266667 4.266667-6.4 4.266667l-6.4 6.4-2.133333 2.133333s-2.133333 2.133333-2.133334 4.266667c0 0 0 2.133333-2.133333 2.133333 0 2.133333-2.133333 2.133333-2.133333 4.266667 0 0 0 2.133333-2.133334 2.133333 0 2.133333 0 2.133333-2.133333 4.266667V341.333333c0 23.466667 19.2 42.666667 42.666667 42.666667s42.666667-19.2 42.666666-42.666667v-108.8L264.533333 512H42.666667c-23.466667 0-42.666667 19.2-42.666667 42.666667v213.333333c0 46.933333 38.4 85.333333 85.333333 85.333333h42.666667c0 70.4 57.6 128 128 128s128-57.6 128-128h256c0 70.4 57.6 128 128 128s128-57.6 128-128h42.666667c46.933333 0 85.333333-38.4 85.333333-85.333333V554.666667c0-23.466667-19.2-42.666667-42.666667-42.666667zM194.133333 243.2L426.666667 405.333333v106.666667h-61.866667l-170.666667-268.8zM256 896c-23.466667 0-42.666667-19.2-42.666667-42.666667s19.2-42.666667 42.666667-42.666666 42.666667 19.2 42.666667 42.666666-19.2 42.666667-42.666667 42.666667z m512 0c-23.466667 0-42.666667-19.2-42.666667-42.666667s19.2-42.666667 42.666667-42.666666 42.666667 19.2 42.666667 42.666666-19.2 42.666667-42.666667 42.666667z m170.666667-128h-74.666667c-23.466667-25.6-57.6-42.666667-96-42.666667s-72.533333 17.066667-96 42.666667h-320c-23.466667-25.6-57.6-42.666667-96-42.666667s-72.533333 17.066667-96 42.666667H85.333333v-170.666667h384c23.466667 0 42.666667-19.2 42.666667-42.666666V298.666667h145.066667l121.6 213.333333H640c-23.466667 0-42.666667 19.2-42.666667 42.666667s19.2 42.666667 42.666667 42.666666h298.666667v170.666667z" p-id="36357" fill="#e6e6e6"></path></svg>